<?xml version="1.0" standalone="no"?>
<!DOCTYPE svg PUBLIC "-//W3C//DTD SVG 20010904//EN"
 "http://www.w3.org/TR/2001/REC-SVG-20010904/DTD/svg10.dtd">
<svg version="1.0" xmlns="http://www.w3.org/2000/svg"
 width="255.000000pt" height="255.000000pt" viewBox="0 0 255.000000 255.000000"
 preserveAspectRatio="xMidYMid meet">
<metadata>
Created by potrace 1.11, written by Peter Selinger 2001-2013
</metadata>
<g transform="translate(0.000000,255.000000) scale(0.100000,-0.100000)"
fill="#000000" stroke="none">
<path d="M1500 2291 c-9 -3 -15 -10 -15 -16 2 -21 23 -179 30 -221 2 -12 6
-48 10 -80 10 -91 8 -89 71 -91 31 -1 58 -4 60 -6 2 -2 -5 -30 -15 -63 -10
-32 -37 -115 -59 -184 -22 -69 -72 -226 -112 -350 -115 -361 -125 -390 -131
-390 -4 0 -9 12 -11 28 -3 15 -35 126 -72 247 -37 121 -83 272 -103 335 -19
63 -52 172 -72 243 l-38 127 44 0 c38 0 43 3 44 23 0 12 2 29 4 38 1 10 6 52
10 95 3 44 8 104 11 134 2 30 6 69 8 87 3 18 -1 33 -7 35 -7 3 -169 3 -362 2
-192 -2 -400 -3 -461 -3 l-112 -1 1 -205 c0 -142 3 -205 11 -205 12 -1 116
-10 155 -14 21 -2 28 -14 52 -87 15 -46 79 -246 144 -444 133 -411 187 -577
246 -755 22 -69 42 -129 43 -135 5 -22 80 -250 84 -255 8 -11 512 -7 521 4 5
6 23 49 39 96 17 47 49 137 72 200 50 138 101 279 210 585 45 127 102 286 127
355 25 69 65 181 90 250 25 69 49 137 55 151 12 33 21 36 131 33 60 -1 87 2
88 9 2 26 -2 412 -5 414 -2 2 -165 6 -362 9 -197 3 -370 7 -384 8 -14 2 -32 0
-40 -3z"/>
</g>
</svg>
