<?xml version="1.0" encoding="UTF-8" standalone="no"?>
<!-- Created with Inkscape (http://www.inkscape.org/) -->

<svg
   xmlns:dc="http://purl.org/dc/elements/1.1/"
   xmlns:cc="http://creativecommons.org/ns#"
   xmlns:rdf="http://www.w3.org/1999/02/22-rdf-syntax-ns#"
   xmlns:svg="http://www.w3.org/2000/svg"
   xmlns="http://www.w3.org/2000/svg"
   xmlns:sodipodi="http://sodipodi.sourceforge.net/DTD/sodipodi-0.dtd"
   xmlns:inkscape="http://www.inkscape.org/namespaces/inkscape"
   width="134.09mm"
   height="13.022663mm"
   viewBox="0 0 134.09 13.022663"
   version="1.1"
   id="svg8"
   inkscape:version="0.92.2 5c3e80d, 2017-08-06"
   sodipodi:docname="volette-nameplate.svg">
  <defs
     id="defs2" />
  <sodipodi:namedview
     id="base"
     pagecolor="#ffffff"
     bordercolor="#666666"
     borderopacity="1.0"
     inkscape:pageopacity="0.0"
     inkscape:pageshadow="2"
     inkscape:zoom="1.979899"
     inkscape:cx="282.67055"
     inkscape:cy="27.290531"
     inkscape:document-units="mm"
     inkscape:current-layer="layer1"
     showgrid="false"
     fit-margin-top="10"
     fit-margin-left="10"
     fit-margin-right="10"
     fit-margin-bottom="10"
     inkscape:window-width="1920"
     inkscape:window-height="1035"
     inkscape:window-x="1440"
     inkscape:window-y="1"
     inkscape:window-maximized="1" />
  <metadata
     id="metadata5">
    <rdf:RDF>
      <cc:Work
         rdf:about="">
        <dc:format>image/svg+xml</dc:format>
        <dc:type
           rdf:resource="http://purl.org/dc/dcmitype/StillImage" />
        <dc:title></dc:title>
      </cc:Work>
    </rdf:RDF>
  </metadata>
  <g
     inkscape:label="Layer 1"
     inkscape:groupmode="layer"
     id="layer1"
     transform="translate(-34.067226,-71.215813)">
    <path
       style="fill:#000000;fill-rule:evenodd;stroke:#000000;stroke-width:0.26458332px;stroke-linecap:butt;stroke-linejoin:miter;stroke-opacity:1"
       d="m 34.206844,76.545386 2.173364,0.188987 0.188989,-2.645834 1.606397,-0.188986 -0.09449,7.181548 -1.41741,0.188987 -0.09449,2.36235 6.236605,0.0945 v -2.267857 l -1.228421,-0.0945 v -7.465028 h 1.322917 l 0.566962,2.645833 h 1.700895 v -4.724701 l -10.677829,-0.0945 z"
       id="path906"
       inkscape:connector-curvature="0" />
    <path
       style="fill:#000000;fill-rule:evenodd;stroke:#000000;stroke-width:0.26458332px;stroke-linecap:butt;stroke-linejoin:miter;stroke-opacity:1"
       d="m 47.341517,71.726189 0.188989,2.36235 h 1.039434 l 0.09449,7.087055 -1.322917,0.09449 0.188989,2.173364 h 5.669643 l -0.09449,-2.173364 -0.755954,-0.283483 0.0945,-2.362351 2.929313,-0.09449 -0.09449,2.456844 h -0.755952 v 2.55134 h 5.575149 v -2.267857 l -1.13393,-0.283483 0.0945,-6.898066 1.228421,-0.188986 v -2.078868 h -5.858629 l 0.09449,2.078868 1.133928,-0.09449 -0.188987,2.645833 -2.929316,-0.0945 v -2.362351 l 0.850445,-0.188986 v -2.173365 z"
       id="path908"
       inkscape:connector-curvature="0" />
    <path
       style="fill:#000000;fill-rule:evenodd;stroke:#000000;stroke-width:0.26458332px;stroke-linecap:butt;stroke-linejoin:miter;stroke-opacity:1"
       d="m 62.460565,71.726189 0.188987,2.173364 h 0.850447 l 0.09449,7.370535 h -1.22842 l 0.09449,2.36235 9.449403,-0.09449 0.472472,-4.535715 h -1.984375 l -0.566965,2.267858 -2.645833,-0.09449 v -2.740326 h 1.700892 l -0.09449,-2.173364 H 67.09077 l -0.188989,-2.645834 3.023809,0.09449 0.377979,2.36235 2.078868,0.0945 -0.415774,-4.535715 z"
       id="path912"
       inkscape:connector-curvature="0"
       sodipodi:nodetypes="ccccccccccccccccccccc" />
    <path
       inkscape:connector-curvature="0"
       id="path934"
       d="m 120.7634,71.820683 0.18899,2.173364 h 0.85045 l 0.0945,7.370535 h -1.22842 l 0.0945,2.36235 9.4494,-0.09449 0.47247,-4.535715 h -1.98437 l -0.56697,2.267858 -2.64583,-0.09449 v -2.740326 h 1.70089 l -0.0945,-2.173364 h -1.70089 l -0.18899,-2.645834 3.02381,0.09449 0.37798,2.36235 2.07886,0.0945 -0.41577,-4.535715 z"
       style="fill:#000000;fill-rule:evenodd;stroke:#000000;stroke-width:0.26458332px;stroke-linecap:butt;stroke-linejoin:miter;stroke-opacity:1"
       sodipodi:nodetypes="ccccccccccccccccccccc" />
    <path
       inkscape:connector-curvature="0"
       id="path938"
       d="m 158.08854,72.198659 0.18899,2.173364 h 0.85045 l 0.0945,7.370535 h -1.22842 l 0.0945,2.36235 9.4494,-0.09449 0.47247,-4.535715 h -1.98437 l -0.56697,2.267858 -2.64583,-0.09449 v -2.740326 h 1.70089 l -0.0945,-2.173364 h -1.70089 l -0.18899,-2.645834 3.02381,0.09449 0.37798,2.36235 2.07886,0.0945 -0.41577,-4.535715 z"
       style="fill:#000000;fill-rule:evenodd;stroke:#000000;stroke-width:0.26458332px;stroke-linecap:butt;stroke-linejoin:miter;stroke-opacity:1"
       sodipodi:nodetypes="ccccccccccccccccccccc" />
    <path
       style="fill:#000000;fill-rule:evenodd;stroke:#000000;stroke-width:0.26458332px;stroke-linecap:butt;stroke-linejoin:miter;stroke-opacity:1"
       d="m 82.209822,71.631695 v 2.173365 l 1.133927,0.09449 3.330916,9.921873 3.000185,2e-6 3.685267,-9.921875 h 1.252048 l -0.02363,-2.267858 -4.653832,-0.07087 0.307107,2.14974 0.826821,0.02362 -2.149738,6.496467 -2.007999,-6.425596 0.590589,6e-6 0.212611,-2.196989 z"
       id="path940"
       inkscape:connector-curvature="0"
       sodipodi:nodetypes="cccccccccccccccc" />
    <path
       style="fill:#000000;fill-rule:evenodd;stroke:#000000;stroke-width:0.26458332px;stroke-linecap:butt;stroke-linejoin:miter;stroke-opacity:1"
       d="m 102.52604,71.348321 c 0,0 -6.047615,1.133925 -5.953124,6.614584 0.09449,5.480653 6.142264,6.047692 6.142264,6.047692 0,0 5.1971,-0.850519 5.1971,-6.709151 0,-5.858637 -5.38624,-5.953125 -5.38624,-5.953125 z m -0.65215,2.256708 c 0.26934,0.004 0.46302,0.105421 0.46302,0.105421 0,0 1.89024,0.189357 1.79576,3.780131 -0.0945,3.590772 -1.70119,3.96875 -1.70119,3.96875 0,0 -2.26801,0.0942 -2.17352,-4.347022 0.065,-3.053337 1.02338,-3.516162 1.61593,-3.50728 z"
       id="path942"
       inkscape:connector-curvature="0" />
    <path
       style="fill:#000000;fill-rule:evenodd;stroke:#000000;stroke-width:0.26458332px;stroke-linecap:butt;stroke-linejoin:miter;stroke-opacity:1"
       d="m 109.04613,72.009671 v 2.078868 h 1.03943 l -0.0945,7.276042 h -1.5119 v 2.362353 l 9.63839,0.09449 0.28348,-4.630209 h -1.98437 l -0.47247,2.078869 -2.36236,0.09449 v -7.181546 l 1.13393,-0.0945 0.18899,-2.36235 z"
       id="path948"
       inkscape:connector-curvature="0" />
    <path
       inkscape:connector-curvature="0"
       id="path950"
       d="m 131.74362,76.791078 2.17336,0.188987 0.18899,-2.645834 1.6064,-0.188986 -0.0945,7.181548 -1.41741,0.188987 -0.0945,2.36235 6.2366,0.0945 v -2.267857 l -1.22842,-0.0945 v -7.465028 h 1.32292 l 0.56696,2.645833 h 1.7009 v -4.724701 l -10.67783,-0.0945 z"
       style="fill:#000000;fill-rule:evenodd;stroke:#000000;stroke-width:0.26458332px;stroke-linecap:butt;stroke-linejoin:miter;stroke-opacity:1" />
    <path
       style="fill:#000000;fill-rule:evenodd;stroke:#000000;stroke-width:0.26458332px;stroke-linecap:butt;stroke-linejoin:miter;stroke-opacity:1"
       d="m 144.76486,76.734362 2.17336,0.188987 0.18899,-2.645834 1.6064,-0.188986 -0.0945,7.181548 -1.41741,0.188987 -0.0945,2.36235 6.2366,0.0945 v -2.267857 l -1.22842,-0.0945 v -7.465028 h 1.32292 l 0.56696,2.645833 h 1.7009 v -4.724701 l -10.67783,-0.0945 z"
       id="path952"
       inkscape:connector-curvature="0" />
  </g>
</svg>
